<svg id="Layer_1" data-name="Layer 1" xmlns="http://www.w3.org/2000/svg" viewBox="0 0 600 600"><defs><style>.cls-1{fill:#8baf9c;}.cls-2{fill:#eab736;}.cls-3{fill:#8c2020;}.cls-4{fill:#fff;}</style></defs><rect class="greenbar" x="230.29" y="151.95" width="53.42" height="378.01" transform="translate(173.13 -77.69) rotate(25.68)"/><path class="yellow" d="M463.89,440.5a69.51,69.51,0,0,1-99.3,62.78,69.51,69.51,0,0,0,0-125.55,69.51,69.51,0,0,1,99.3,62.77Z"/><path class="yellow" d="M374.32,440.5a69.51,69.51,0,0,1-39.66,62.78,69.53,69.53,0,0,1,0-125.55A69.49,69.49,0,0,1,374.32,440.5Z"/><circle class="redcircle" cx="129.64" cy="148.54" r="71.41"/><path class="redshape" d="M458.77,116.73S359.62,179,443.48,222.78a58.73,58.73,0,0,1,9.22,5.87c13.25,10.45,15.77,26,7.26,40.4a63.31,63.31,0,0,1-16.53,17.87c-6.16,4.65-15.29,11.08-23,11.75-16.13,1.38-28.87-7.5-37.84-20-1,4.4,1.23,11,2.11,15.37a191.17,191.17,0,0,0,6.05,23.06c6,18.11,15.94,39,34.6,46.95,27.51,11.66,56.92-12.41,75.39-30C605,234.48,458.77,116.73,458.77,116.73Z"/><rect class="whitebar" x="109.05" y="410.46" width="410.65" height="45.29"/><rect class="whitebar" x="28.28" y="148.54" width="543.43" height="33.32"/></svg>