<svg viewBox="0 0 16 16" xmlns="http://www.w3.org/2000/svg"><path d="M5.6 2a3.5 3.5 0 1 1 0 7 3.5 3.5 0 0 1 0-7zm4.01 7.302l-1.56-.39c-1.64 1.18-3.626.916-4.9 0l-1.56.39A2.1 2.1 0 0 0 0 11.34v.81c0 .58.47 1.05 1.05 1.05h9.1c.58 0 1.05-.47 1.05-1.05v-.81a2.1 2.1 0 0 0-1.59-2.038zm6.09-2.48h-1.722V5.1a.3.3 0 0 0-.3-.3h-.956a.3.3 0 0 0-.3.3v1.722H10.7a.3.3 0 0 0-.3.3v.956a.3.3 0 0 0 .3.3h1.722V10.1a.3.3 0 0 0 .3.3h.956a.3.3 0 0 0 .3-.3V8.378H15.7a.3.3 0 0 0 .3-.3v-.956a.3.3 0 0 0-.3-.3z"></path></svg>