<svg viewBox="0 0 16 16" xmlns="http://www.w3.org/2000/svg"><path d="M12.749 7.998l1.078-1.055a.558.558 0 0 0-.25-.945l-1.469-.375.414-1.453a.568.568 0 0 0-.695-.696l-1.453.414L10 2.42a.562.562 0 0 0-.946-.25L8 3.256 6.946 2.169C6.65 1.857 6.1 2 6 2.42l-.374 1.47-1.453-.415a.568.568 0 0 0-.695.696l.414 1.453-1.469.375a.558.558 0 0 0-.25.945l1.078 1.055-1.078 1.055a.558.558 0 0 0 .25.945l1.469.375-.414 1.454a.568.568 0 0 0 .695.695l1.453-.414L6 13.577c.104.435.65.563.946.25L8 12.749l1.054 1.078a.56.56 0 0 0 .946-.25l.374-1.47 1.453.415a.568.568 0 0 0 .695-.695l-.414-1.454 1.469-.375a.558.558 0 0 0 .25-.945l-1.078-1.055z"></path></svg>