<svg viewBox="0 0 16 16" xmlns="http://www.w3.org/2000/svg"><path d="M15.572 6.375L8.677 8.503a2.4 2.4 0 0 1-1.354 0L2.31 6.956c-.214.286-.275.576-.298.958a.8.8 0 0 1-.019 1.383l.405 3.077a.2.2 0 0 1-.198.226H1a.2.2 0 0 1-.198-.226l.405-3.078a.8.8 0 0 1 .005-1.395c.023-.45.099-.831.303-1.19L.428 6.375c-.572-.17-.57-.98 0-1.15l6.895-2.128a2.4 2.4 0 0 1 1.354 0l6.895 2.128c.572.17.57.98 0 1.15zm-6.66 2.892l-.005.002-.005.001a3.2 3.2 0 0 1-1.804 0l-.005-.001-.006-.002-3.772-1.164L3 10.2c0 .884 2.239 1.6 5 1.6s5-.716 5-1.6l-.315-2.097-3.772 1.164z"></path></svg>